<svg id="Layer_1" data-name="Layer 1" xmlns="http://www.w3.org/2000/svg" xmlns:xlink="http://www.w3.org/1999/xlink" viewBox="0 0 841.9 614.9"><defs><style>.cls-1{fill:none;}.cls-2{fill:url(#radial-gradient);}.cls-3{fill:url(#linear-gradient);}.cls-10,.cls-18,.cls-19,.cls-21,.cls-22,.cls-23,.cls-25,.cls-26,.cls-27,.cls-28,.cls-29,.cls-32,.cls-35,.cls-36,.cls-38,.cls-39,.cls-4,.cls-40,.cls-41{fill-rule:evenodd;}.cls-4{fill:url(#linear-gradient-2);}.cls-5{clip-path:url(#clip-path);}.cls-6{isolation:isolate;}.cls-7{clip-path:url(#clip-path-2);}.cls-8{clip-path:url(#clip-path-3);}.cls-9{clip-path:url(#clip-path-4);}.cls-10{fill:#f5f5f5;}.cls-11{clip-path:url(#clip-path-5);}.cls-12{clip-path:url(#clip-path-6);}.cls-13{clip-path:url(#clip-path-7);}.cls-14{clip-path:url(#clip-path-8);}.cls-15{clip-path:url(#clip-path-9);}.cls-16{clip-path:url(#clip-path-10);}.cls-17{clip-path:url(#clip-path-11);}.cls-18{fill:#cbcbcb;}.cls-19{fill:#b5b5b5;}.cls-20{clip-path:url(#clip-path-12);}.cls-21{fill:#eee;}.cls-22{fill:#d6d6d6;}.cls-23{fill:#f1f1f1;}.cls-24{clip-path:url(#clip-path-13);}.cls-25{fill:#6aa8c3;}.cls-26{fill:#01315b;}.cls-27{fill:#a1c4d2;}.cls-28{fill:#00a9ff;}.cls-29{fill:#fff;}.cls-30{clip-path:url(#clip-path-14);}.cls-31{clip-path:url(#clip-path-15);}.cls-32{fill:#003d73;}.cls-33{clip-path:url(#clip-path-16);}.cls-34{clip-path:url(#clip-path-17);}.cls-35{fill:#1c5588;}.cls-36{fill:#295b88;}.cls-37{clip-path:url(#clip-path-18);}.cls-38{fill:#bde7ee;}.cls-39{fill:#52a5c1;}.cls-40{fill:url(#linear-gradient-3);}.cls-41{fill:#d4d4d4;}</style><radialGradient id="radial-gradient" cx="0" cy="-241.49" r="1" gradientTransform="matrix(614.45, 0, 0, -614.45, 420.83, -148202.07)" gradientUnits="userSpaceOnUse"><stop offset="0" stop-color="#02b5e1"/><stop offset="0.17" stop-color="#0a90bb"/><stop offset="0.62" stop-color="#19436f"/><stop offset="1" stop-color="#2e0d3f"/></radialGradient><linearGradient id="linear-gradient" x1="-1.49" y1="-241.82" x2="0.02" y2="-241.82" gradientTransform="matrix(-3.22, 133.68, 133.68, 3.22, 32745.08, 1010.99)" gradientUnits="userSpaceOnUse"><stop offset="0.07" stop-color="#39acbe"/><stop offset="0.33" stop-color="#51b6bf"/><stop offset="0.56" stop-color="#8bcdc0"/><stop offset="1" stop-color="#fce5e3"/></linearGradient><linearGradient id="linear-gradient-2" x1="-1.97" y1="-240.52" x2="-0.97" y2="-240.52" gradientTransform="matrix(29.79, 42.32, 42.32, -29.79, 10709.89, -6862.43)" gradientUnits="userSpaceOnUse"><stop offset="0" stop-color="#fff"/><stop offset="1" stop-color="#bdbdbd"/></linearGradient><clipPath id="clip-path"><polygon class="cls-1" points="411.8 188.5 410.3 159.6 398.5 166.3 392.1 179.5 411.8 188.5"/></clipPath><clipPath id="clip-path-2"><polygon class="cls-1" points="415.6 201.9 411.8 188.5 410.9 171.2 410.3 159.6 457 183.5 473.8 203.1 458.6 205.3 444.8 201.9 415.6 201.9"/></clipPath><clipPath id="clip-path-3"><polygon class="cls-1" points="398 182.2 400.2 179.5 402.8 176.9 404.7 170.2 406.4 176.7 402.6 181.2 403.6 184.7 398 182.2"/></clipPath><clipPath id="clip-path-4"><polygon class="cls-1" points="473.8 203.1 478.2 217.3 475.7 242.9 467.4 242.9 456 211.8 458.6 205.3 473.8 203.1"/></clipPath><clipPath id="clip-path-5"><polygon class="cls-1" points="423.2 242.9 447 242.9 441.8 208.7 444.8 201.9 415.6 201.9 423.2 242.9"/></clipPath><clipPath id="clip-path-6"><polygon class="cls-1" points="331.2 242.9 362 179.5 418.6 190.7 421.8 204.2 426.4 242.9 331.2 242.9"/></clipPath><clipPath id="clip-path-7"><polygon class="cls-1" points="399.9 526.2 467.5 386.3 446.1 267.1 475.4 242.9 407 242.9 399.9 526.2"/></clipPath><clipPath id="clip-path-8"><polygon class="cls-1" points="516.2 242.9 506.1 313.4 504.4 325.6 438 505.4 440.9 399.9 441.7 371.1 426.4 246.1 516.2 242.9"/></clipPath><clipPath id="clip-path-9"><polygon class="cls-1" points="378.8 189.5 371.6 199.1 373.6 209.5 374 214.7 371 230.7 373.6 242.9 387.8 242.9 388.2 229.5 378.8 217.1 380.7 207.7 375.2 200.5 378.8 189.5"/></clipPath><clipPath id="clip-path-10"><polygon class="cls-1" points="420.2 382.8 438 504.9 441.5 372 420.2 382.8"/></clipPath><clipPath id="clip-path-11"><polygon class="cls-1" points="331.2 242.9 327.5 304.3 352.8 375.8 371.4 437.4 399.9 526.2 403.8 402.5 401.8 368.3 427.7 239.8 331.2 242.9"/></clipPath><clipPath id="clip-path-12"><polygon class="cls-1" points="431.3 187.4 443.2 198.5 444.8 201.9 441.8 208.7 450.9 242.9 467.4 242.9 456 211.8 458.6 205.3 447.2 196.2 431.3 187.4"/></clipPath><clipPath id="clip-path-13"><polygon class="cls-1" points="449.9 218.3 452.4 226.6 453.9 230.2 454 233.5 456.6 236.6 453.5 241.7 460 236.2 455.8 233.3 457.7 229.7 453.8 226.6 449.9 218.3"/></clipPath><clipPath id="clip-path-14"><polygon class="cls-1" points="352.8 242.9 357.9 299.6 368.1 366.3 411.1 469.7 394.6 242.9 352.8 242.9"/></clipPath><clipPath id="clip-path-15"><polygon class="cls-1" points="411.1 469.7 416.5 408.9 424.6 393.9 429.6 377.4 438 372 443.2 360.1 438.9 395.9 446.5 406.5 471.3 374.2 479.7 346.4 499.2 242.9 394.6 242.9 396.6 278 411.1 469.7"/></clipPath><clipPath id="clip-path-16"><polygon class="cls-1" points="442.6 242.9 458.5 333.2 484.9 299.7 488.5 242.9 442.6 242.9"/></clipPath><clipPath id="clip-path-17"><polygon class="cls-1" points="499.2 273.8 504.4 249.2 484.9 242.9 464.7 242.9 470.8 302.1 499.2 273.8"/></clipPath><clipPath id="clip-path-18"><polygon class="cls-1" points="387.2 310.6 421 365.7 394.6 242.9 341 242.9 367.6 273 387.2 310.6"/></clipPath><linearGradient id="linear-gradient-3" x1="2.03" y1="-241.81" x2="3.03" y2="-241.81" gradientTransform="matrix(-5.16, -61.18, -61.18, 5.16, -14425.9, 1635.24)" gradientUnits="userSpaceOnUse"><stop offset="0" stop-color="#49bbcd"/><stop offset="0.5" stop-color="#c3dfe4"/><stop offset="1" stop-color="#ebebeb"/></linearGradient></defs><g id="Layer_2" data-name="Layer 2"><g id="Layer_1-2" data-name="Layer 1-2"><g id="图层2"><rect class="cls-2" y="242.9" width="841.9" height="372"/><rect class="cls-3" width="841.9" height="242.9"/></g><g id="图层1"><path class="cls-4" d="M471.2,219.9l45,23H462.1Z"/><g class="cls-5"><image id="_Image5" data-name=" Image5" class="cls-6" width="31" height="47" transform="translate(392.44 159.55) scale(0.62 0.62)" xlink:href="nft/website/roadmap/5013348B2AA09174.png"/></g><g class="cls-7"><image id="_Image7" data-name=" Image7" class="cls-6" width="99" height="72" transform="translate(410.4 159.48) scale(0.64 0.64)" xlink:href="nft/website/roadmap/5013348B2AA09175.png"/></g><g class="cls-8"><image id="_Image9" data-name=" Image9" class="cls-6" width="14" height="24" transform="translate(397.93 170.24) scale(0.61 0.6)" xlink:href="nft/website/roadmap/5013348B2AA09173.png"/></g><g class="cls-9"><image id="_Image11" data-name=" Image11" class="cls-6" width="35" height="62" transform="translate(455.92 203.12) scale(0.64 0.64)" xlink:href="nft/website/roadmap/5013348B2AA0917C.png"/></g><path class="cls-10" d="M385.7,176.7,362,179.5l56.6,11.2-3.1-3.5Z"/><g class="cls-11"><image id="_Image13" data-name=" Image13" class="cls-6" width="50" height="62" transform="translate(415 202.38) scale(0.66 0.65)" xlink:href="nft/website/roadmap/5013348B2AA0917F.png"/></g><g class="cls-12"><image id="_Image15" data-name=" Image15" class="cls-6" width="147" height="98" transform="translate(331.28 179.69) scale(0.65 0.64)" xlink:href="nft/website/roadmap/5013348B2AA0917D.png"/></g><g class="cls-13"><image id="_Image17" data-name=" Image17" class="cls-6" width="118" height="434" transform="translate(399.32 243.64) scale(0.65 0.65)" xlink:href="nft/website/roadmap/5013348B2AA09172.png"/></g><g class="cls-14"><image id="_Image19" data-name=" Image19" class="cls-6" width="139" height="403" transform="translate(426.35 243.59) scale(0.65)" xlink:href="nft/website/roadmap/5013348B2AA09176.png"/></g><g class="cls-15"><image id="_Image21" data-name=" Image21" class="cls-6" width="29" height="86" transform="translate(370.78 189.6) scale(0.61 0.62)" xlink:href="nft/website/roadmap/5013348B2AA09177.png"/></g><g class="cls-16"><image id="_Image23" data-name=" Image23" class="cls-6" width="35" height="212" transform="translate(420.09 372.02) scale(0.61 0.62)" xlink:href="nft/website/roadmap/92C6981D29350613.png"/></g><g class="cls-17"><image id="_Image25" data-name=" Image25" class="cls-6" width="154" height="446" transform="translate(328.25 239.58) scale(0.64 0.65)" xlink:href="nft/website/roadmap/92C6981D29350611.png"/></g><path class="cls-18" d="M352.5,246.2,378,208.6l13.7-20.1,5.3,26.2-28.8,30.8Z"/><path class="cls-19" d="M397,214.6l6.4,7.6,6.6,20.7H368.2Z"/><g class="cls-20"><image id="_Image27" data-name=" Image27" class="cls-6" width="57" height="86" transform="translate(431.22 187.95) scale(0.64 0.63)" xlink:href="nft/website/roadmap/92C6981D29350617.png"/></g><path class="cls-21" d="M391.7,188.5l5.3,26.2,6.4,7.6L410,243h89.2l-58.5-8.7-27.2-16.9Z"/><path class="cls-22" d="M414.6,242.9l14.6-12.7,6.7-23.2,6.7,35.9Z"/><path class="cls-23" d="M435.9,207l4.8,27.2,2,8.7h46L466.6,219Z"/><g class="cls-24"><image id="_Image29" data-name=" Image29" class="cls-6" width="16" height="39" transform="translate(450.26 218.22) scale(0.59 0.6)" xlink:href="nft/website/roadmap/92C6981D29350612.png"/></g><path class="cls-25" d="M393,236.6l1.6,6.3h20.9l-1.2-3.3Z"/><path class="cls-26" d="M443.2,360.1,438,372l-8.4,5.4,9.2,18.4Z"/><path class="cls-27" d="M414.2,239.6l1.2,3.3h20.4v-5.2Z"/><path class="cls-28" d="M484.9,242.9l12,6.6,2.3-6.6Z"/><path class="cls-29" d="M393,236.6l-78.1-19.5,26.1-4,49,5.9,6.7,5.2,39.2,13.6-21.6,1.9Z"/><g class="cls-30"><image id="_Image31" data-name=" Image31" class="cls-6" width="91" height="352" transform="translate(352.74 242.98) scale(0.64 0.65)" xlink:href="nft/website/roadmap/92C6981D2935060D.png"/></g><g class="cls-31"><image id="_Image33" data-name=" Image33" class="cls-6" width="160" height="345" transform="translate(394.44 243.32) scale(0.66)" xlink:href="nft/website/roadmap/92C6981D2935060E.png"/></g><path class="cls-32" d="M409.6,242.9l19.6,49.2,29.2,41-15.9-90.3Z"/><g class="cls-33"><image id="_Image35" data-name=" Image35" class="cls-6" width="72" height="139" transform="translate(442.46 243.62) scale(0.65 0.64)" xlink:href="nft/website/roadmap/92C6981D2935060F.png"/></g><g class="cls-34"><image id="_Image37" data-name=" Image37" class="cls-6" width="64" height="94" transform="translate(464.67 243.02) scale(0.62 0.63)" xlink:href="nft/website/roadmap/92C6981D29350631.png"/></g><path class="cls-35" d="M421,365.7l4.6-86.3-10.2-36.5H394.5Z"/><path class="cls-36" d="M415.5,242.9l10.2,36.5,10.2-36.5Z"/><g class="cls-37"><image id="_Image39" data-name=" Image39" class="cls-6" width="125" height="189" transform="translate(340.65 243.3) scale(0.65 0.65)" xlink:href="nft/website/roadmap/92C6981D29350633.png"/></g><path class="cls-38" d="M464.7,238.1v4.8h20.1Z"/><path class="cls-39" d="M484.9,242.9l19.5,6.3-5.2-6.3Z"/><path class="cls-29" d="M474.6,235.3l12.2-.9,12.4,8.5H484.9l-20.1-4.8Z"/><path class="cls-40" d="M341,242.9,314.9,217,393,236.5l1.6,6.3H341Z"/><path class="cls-41" d="M369.7,220.7l-1.4-4h-.1l1,4.4,4.4,1.1,2,.7,1.6.2,2.3.6,1.8.5,2.1,2.1,3.4,1.9,4.9.8-5.4-1.5-3.6-2-2-2-5-.7-2.2-1.1Z"/></g></g></g></svg>