<?xml version="1.0" encoding="utf-8"?>
<!-- Generator: Adobe Illustrator 25.3.1, SVG Export Plug-In . SVG Version: 6.00 Build 0)  -->
<svg version="1.1" id="Layer_1" xmlns="http://www.w3.org/2000/svg" xmlns:xlink="http://www.w3.org/1999/xlink" x="0px" y="0px"
	 viewBox="0 0 841.9 614.9" style="enable-background:new 0 0 841.9 614.9;" xml:space="preserve">
<style type="text/css">
	.st0{fill:url(#SVGID_1_);}
	.st1{fill:url(#SVGID_2_);}
	.st2{fill-rule:evenodd;clip-rule:evenodd;fill:url(#SVGID_3_);}
	.st3{clip-path:url(#SVGID_5_);}
	.st4{clip-path:url(#SVGID_7_);}
	.st5{clip-path:url(#SVGID_9_);}
	.st6{clip-path:url(#SVGID_11_);}
	.st7{fill-rule:evenodd;clip-rule:evenodd;fill:#F5F5F5;}
	.st8{clip-path:url(#SVGID_13_);}
	.st9{clip-path:url(#SVGID_15_);}
	.st10{clip-path:url(#SVGID_17_);}
	.st11{clip-path:url(#SVGID_19_);}
	.st12{clip-path:url(#SVGID_21_);}
	.st13{clip-path:url(#SVGID_23_);}
	.st14{clip-path:url(#SVGID_25_);}
	.st15{fill-rule:evenodd;clip-rule:evenodd;fill:#CBCBCB;}
	.st16{fill-rule:evenodd;clip-rule:evenodd;fill:#B5B5B5;}
	.st17{clip-path:url(#SVGID_27_);}
	.st18{fill-rule:evenodd;clip-rule:evenodd;fill:#EEEEEE;}
	.st19{fill-rule:evenodd;clip-rule:evenodd;fill:#D6D6D6;}
	.st20{fill-rule:evenodd;clip-rule:evenodd;fill:#F1F1F1;}
	.st21{clip-path:url(#SVGID_29_);}
	.st22{fill-rule:evenodd;clip-rule:evenodd;fill:#6AA8C3;}
	.st23{fill-rule:evenodd;clip-rule:evenodd;fill:#01315B;}
	.st24{fill-rule:evenodd;clip-rule:evenodd;fill:#A1C4D2;}
	.st25{fill-rule:evenodd;clip-rule:evenodd;fill:#00A9FF;}
	.st26{fill-rule:evenodd;clip-rule:evenodd;fill:#FFFFFF;}
	.st27{clip-path:url(#SVGID_31_);}
	.st28{clip-path:url(#SVGID_33_);}
	.st29{fill-rule:evenodd;clip-rule:evenodd;fill:#003D73;}
	.st30{clip-path:url(#SVGID_35_);}
	.st31{clip-path:url(#SVGID_37_);}
	.st32{fill-rule:evenodd;clip-rule:evenodd;fill:#1C5588;}
	.st33{fill-rule:evenodd;clip-rule:evenodd;fill:#295B88;}
	.st34{clip-path:url(#SVGID_39_);}
	.st35{fill-rule:evenodd;clip-rule:evenodd;fill:#BDE7EE;}
	.st36{fill-rule:evenodd;clip-rule:evenodd;fill:#52A5C1;}
	.st37{fill-rule:evenodd;clip-rule:evenodd;fill:url(#SVGID_40_);}
	.st38{fill-rule:evenodd;clip-rule:evenodd;fill:#D4D4D4;}
</style>
<g id="Layer_2_1_">
	<g id="Layer_1-2">
		<g id="图层2">
			
				<radialGradient id="SVGID_1_" cx="1.953383e-04" cy="-241.4926" r="0.9999" gradientTransform="matrix(614.45 0 0 -614.45 420.83 -148202.0781)" gradientUnits="userSpaceOnUse">
				<stop  offset="0" style="stop-color:#02B5E1"/>
				<stop  offset="0.17" style="stop-color:#0A90BB"/>
				<stop  offset="0.62" style="stop-color:#19436F"/>
				<stop  offset="1" style="stop-color:#2E0D3F"/>
			</radialGradient>
			<rect y="242.9" class="st0" width="841.9" height="372"/>
			
				<linearGradient id="SVGID_2_" gradientUnits="userSpaceOnUse" x1="-1.4873" y1="-241.8223" x2="2.122998e-02" y2="-241.8223" gradientTransform="matrix(-3.22 133.68 133.68 3.22 32745.084 1010.9875)">
				<stop  offset="7.024398e-02" style="stop-color:#39ACBE"/>
				<stop  offset="0.3328" style="stop-color:#51B6BF"/>
				<stop  offset="0.56" style="stop-color:#8BCDC0"/>
				<stop  offset="1" style="stop-color:#FCE5E3"/>
			</linearGradient>
			<rect class="st1" width="841.9" height="242.9"/>
		</g>
		<g id="图层1">
			
				<linearGradient id="SVGID_3_" gradientUnits="userSpaceOnUse" x1="-1.9727" y1="-240.5179" x2="-0.9727" y2="-240.5179" gradientTransform="matrix(29.79 42.32 42.32 -29.79 10709.8867 -6862.4321)">
				<stop  offset="0" style="stop-color:#FFFFFF"/>
				<stop  offset="1" style="stop-color:#BDBDBD"/>
			</linearGradient>
			<path class="st2" d="M471.2,219.9l45,23h-54.1L471.2,219.9z"/>
			<g>
				<g>
					<defs>
						<polygon id="SVGID_4_" points="411.8,188.5 410.3,159.6 398.5,166.3 392.1,179.5 						"/>
					</defs>
					<clipPath id="SVGID_5_">
						<use xlink:href="#SVGID_4_"  style="overflow:visible;"/>
					</clipPath>
					<g class="st3">
						
							<image style="overflow:visible;enable-background:new    ;" width="31" height="47" id="_Image5" xlink:href="5013348B2AA09174.png"  transform="matrix(0.6199 0 0 0.6199 392.4416 159.5484)">
						</image>
					</g>
				</g>
			</g>
			<g>
				<g>
					<defs>
						<polygon id="SVGID_6_" points="415.6,201.9 411.8,188.5 410.9,171.2 410.3,159.6 457,183.5 473.8,203.1 458.6,205.3 
							444.8,201.9 						"/>
					</defs>
					<clipPath id="SVGID_7_">
						<use xlink:href="#SVGID_6_"  style="overflow:visible;"/>
					</clipPath>
					<g class="st4">
						
							<image style="overflow:visible;enable-background:new    ;" width="99" height="72" id="_Image7" xlink:href="5013348B2AA09175.png"  transform="matrix(0.6352 0 0 0.6352 410.4041 159.4798)">
						</image>
					</g>
				</g>
			</g>
			<g>
				<g>
					<defs>
						<polygon id="SVGID_8_" points="398,182.2 400.2,179.5 402.8,176.9 404.7,170.2 406.4,176.7 402.6,181.2 403.6,184.7 						"/>
					</defs>
					<clipPath id="SVGID_9_">
						<use xlink:href="#SVGID_8_"  style="overflow:visible;"/>
					</clipPath>
					<g class="st5">
						
							<image style="overflow:visible;enable-background:new    ;" width="14" height="24" id="_Image9" xlink:href="5013348B2AA09173.png"  transform="matrix(0.6086 0 0 0.599 397.9301 170.2424)">
						</image>
					</g>
				</g>
			</g>
			<g>
				<g>
					<defs>
						<polygon id="SVGID_10_" points="473.8,203.1 478.2,217.3 475.7,242.9 467.4,242.9 456,211.8 458.6,205.3 						"/>
					</defs>
					<clipPath id="SVGID_11_">
						<use xlink:href="#SVGID_10_"  style="overflow:visible;"/>
					</clipPath>
					<g class="st6">
						
							<image style="overflow:visible;enable-background:new    ;" width="35" height="62" id="_Image11" xlink:href="5013348B2AA0917C.png"  transform="matrix(0.6376 0 0 0.6376 455.9225 203.1162)">
						</image>
					</g>
				</g>
			</g>
			<path class="st7" d="M385.7,176.7l-23.7,2.8l56.6,11.2l-3.1-3.5L385.7,176.7z"/>
			<g>
				<g>
					<defs>
						<polygon id="SVGID_12_" points="423.2,242.9 447,242.9 441.8,208.7 444.8,201.9 415.6,201.9 						"/>
					</defs>
					<clipPath id="SVGID_13_">
						<use xlink:href="#SVGID_12_"  style="overflow:visible;"/>
					</clipPath>
					<g class="st8">
						
							<image style="overflow:visible;enable-background:new    ;" width="50" height="62" id="_Image13" xlink:href="5013348B2AA0917F.png"  transform="matrix(0.6563 0 0 0.6464 415.0026 202.384)">
						</image>
					</g>
				</g>
			</g>
			<g>
				<g>
					<defs>
						<polygon id="SVGID_14_" points="331.2,242.9 362,179.5 418.6,190.7 421.8,204.2 426.4,242.9 						"/>
					</defs>
					<clipPath id="SVGID_15_">
						<use xlink:href="#SVGID_14_"  style="overflow:visible;"/>
					</clipPath>
					<g class="st9">
						
							<image style="overflow:visible;enable-background:new    ;" width="147" height="98" id="_Image15" xlink:href="5013348B2AA0917D.png"  transform="matrix(0.6504 0 0 0.6404 331.2804 179.6873)">
						</image>
					</g>
				</g>
			</g>
			<g>
				<g>
					<defs>
						<polygon id="SVGID_16_" points="399.9,526.2 467.5,386.3 446.1,267.1 475.4,242.9 407,242.9 						"/>
					</defs>
					<clipPath id="SVGID_17_">
						<use xlink:href="#SVGID_16_"  style="overflow:visible;"/>
					</clipPath>
					<g class="st10">
						
							<image style="overflow:visible;enable-background:new    ;" width="118" height="434" id="_Image17" xlink:href="5013348B2AA09172.png"  transform="matrix(0.6521 0 0 0.6521 399.3233 243.6399)">
						</image>
					</g>
				</g>
			</g>
			<g>
				<g>
					<defs>
						<polygon id="SVGID_18_" points="516.2,242.9 506.1,313.4 504.4,325.6 438,505.4 440.9,399.9 441.7,371.1 426.4,246.1 						
							"/>
					</defs>
					<clipPath id="SVGID_19_">
						<use xlink:href="#SVGID_18_"  style="overflow:visible;"/>
					</clipPath>
					<g class="st11">
						
							<image style="overflow:visible;enable-background:new    ;" width="139" height="403" id="_Image19" xlink:href="5013348B2AA09176.png"  transform="matrix(0.6518 0 0 0.6518 426.3492 243.5861)">
						</image>
					</g>
				</g>
			</g>
			<g>
				<g>
					<defs>
						<polygon id="SVGID_20_" points="378.8,189.5 371.6,199.1 373.6,209.5 374,214.7 371,230.7 373.6,242.9 387.8,242.9 
							388.2,229.5 378.8,217.1 380.7,207.7 375.2,200.5 						"/>
					</defs>
					<clipPath id="SVGID_21_">
						<use xlink:href="#SVGID_20_"  style="overflow:visible;"/>
					</clipPath>
					<g class="st12">
						
							<image style="overflow:visible;enable-background:new    ;" width="29" height="86" id="_Image21" xlink:href="5013348B2AA09177.png"  transform="matrix(0.6074 0 0 0.6168 370.783 189.6005)">
						</image>
					</g>
				</g>
			</g>
			<g>
				<g>
					<defs>
						<polygon id="SVGID_22_" points="420.2,382.8 438,504.9 441.5,372 						"/>
					</defs>
					<clipPath id="SVGID_23_">
						<use xlink:href="#SVGID_22_"  style="overflow:visible;"/>
					</clipPath>
					<g class="st13">
						
							<image style="overflow:visible;enable-background:new    ;" width="35" height="212" id="_Image23" xlink:href="92C6981D29350613.png"  transform="matrix(0.6122 0 0 0.6218 420.0851 372.0151)">
						</image>
					</g>
				</g>
			</g>
			<g>
				<g>
					<defs>
						<polygon id="SVGID_24_" points="331.2,242.9 327.5,304.3 352.8,375.8 371.4,437.4 399.9,526.2 403.8,402.5 401.8,368.3 
							427.7,239.8 						"/>
					</defs>
					<clipPath id="SVGID_25_">
						<use xlink:href="#SVGID_24_"  style="overflow:visible;"/>
					</clipPath>
					<g class="st14">
						
							<image style="overflow:visible;enable-background:new    ;" width="154" height="446" id="_Image25" xlink:href="92C6981D29350611.png"  transform="matrix(0.6362 0 0 0.646 328.2462 239.5764)">
						</image>
					</g>
				</g>
			</g>
			<path class="st15" d="M352.5,246.2l25.5-37.6l13.7-20.1l5.3,26.2l-28.8,30.8L352.5,246.2z"/>
			<path class="st16" d="M397,214.6l6.4,7.6l6.6,20.7h-41.8L397,214.6z"/>
			<g>
				<g>
					<defs>
						<polygon id="SVGID_26_" points="431.3,187.4 443.2,198.5 444.8,201.9 441.8,208.7 450.9,242.9 467.4,242.9 456,211.8 
							458.6,205.3 447.2,196.2 						"/>
					</defs>
					<clipPath id="SVGID_27_">
						<use xlink:href="#SVGID_26_"  style="overflow:visible;"/>
					</clipPath>
					<g class="st17">
						
							<image style="overflow:visible;enable-background:new    ;" width="57" height="86" id="_Image27" xlink:href="92C6981D29350617.png"  transform="matrix(0.6395 0 0 0.6298 431.224 187.9487)">
						</image>
					</g>
				</g>
			</g>
			<path class="st18" d="M391.7,188.5l5.3,26.2l6.4,7.6L410,243h89.2l-58.5-8.7l-27.2-16.9L391.7,188.5z"/>
			<path class="st19" d="M414.6,242.9l14.6-12.7l6.7-23.2l6.7,35.9H414.6z"/>
			<path class="st20" d="M435.9,207l4.8,27.2l2,8.7h46L466.6,219L435.9,207z"/>
			<g>
				<g>
					<defs>
						<polygon id="SVGID_28_" points="449.9,218.3 452.4,226.6 453.9,230.2 454,233.5 456.6,236.6 453.5,241.7 460,236.2 
							455.8,233.3 457.7,229.7 453.8,226.6 						"/>
					</defs>
					<clipPath id="SVGID_29_">
						<use xlink:href="#SVGID_28_"  style="overflow:visible;"/>
					</clipPath>
					<g class="st21">
						
							<image style="overflow:visible;enable-background:new    ;" width="16" height="39" id="_Image29" xlink:href="92C6981D29350612.png"  transform="matrix(0.5862 0 0 0.6047 450.2606 218.2227)">
						</image>
					</g>
				</g>
			</g>
			<path class="st22" d="M393,236.6l1.6,6.3h20.9l-1.2-3.3L393,236.6z"/>
			<path class="st23" d="M443.2,360.1L438,372l-8.4,5.4l9.2,18.4L443.2,360.1z"/>
			<path class="st24" d="M414.2,239.6l1.2,3.3h20.4v-5.2L414.2,239.6z"/>
			<path class="st25" d="M484.9,242.9l12,6.6l2.3-6.6H484.9z"/>
			<path class="st26" d="M393,236.6l-78.1-19.5l26.1-4l49,5.9l6.7,5.2l39.2,13.6l-21.6,1.9L393,236.6z"/>
			<g>
				<g>
					<defs>
						<polygon id="SVGID_30_" points="352.8,242.9 357.9,299.6 368.1,366.3 411.1,469.7 394.6,242.9 						"/>
					</defs>
					<clipPath id="SVGID_31_">
						<use xlink:href="#SVGID_30_"  style="overflow:visible;"/>
					</clipPath>
					<g class="st27">
						
							<image style="overflow:visible;enable-background:new    ;" width="91" height="352" id="_Image31" xlink:href="92C6981D2935060D.png"  transform="matrix(0.6368 0 0 0.6466 352.7424 242.9819)">
						</image>
					</g>
				</g>
			</g>
			<g>
				<g>
					<defs>
						<polygon id="SVGID_32_" points="411.1,469.7 416.5,408.9 424.6,393.9 429.6,377.4 438,372 443.2,360.1 438.9,395.9 
							446.5,406.5 471.3,374.2 479.7,346.4 499.2,242.9 394.6,242.9 396.6,278 						"/>
					</defs>
					<clipPath id="SVGID_33_">
						<use xlink:href="#SVGID_32_"  style="overflow:visible;"/>
					</clipPath>
					<g class="st28">
						
							<image style="overflow:visible;enable-background:new    ;" width="160" height="345" id="_Image33" xlink:href="92C6981D2935060E.png"  transform="matrix(0.6577 0 0 0.6577 394.4443 243.3234)">
						</image>
					</g>
				</g>
			</g>
			<path class="st29" d="M409.6,242.9l19.6,49.2l29.2,41l-15.9-90.3L409.6,242.9z"/>
			<g>
				<g>
					<defs>
						<polygon id="SVGID_34_" points="442.6,242.9 458.5,333.2 484.9,299.7 488.5,242.9 						"/>
					</defs>
					<clipPath id="SVGID_35_">
						<use xlink:href="#SVGID_34_"  style="overflow:visible;"/>
					</clipPath>
					<g class="st30">
						
							<image style="overflow:visible;enable-background:new    ;" width="72" height="139" id="_Image35" xlink:href="92C6981D2935060F.png"  transform="matrix(0.6451 0 0 0.6353 442.4562 243.6205)">
						</image>
					</g>
				</g>
			</g>
			<g>
				<g>
					<defs>
						<polygon id="SVGID_36_" points="499.2,273.8 504.4,249.2 484.9,242.9 464.7,242.9 470.8,302.1 						"/>
					</defs>
					<clipPath id="SVGID_37_">
						<use xlink:href="#SVGID_36_"  style="overflow:visible;"/>
					</clipPath>
					<g class="st31">
						
							<image style="overflow:visible;enable-background:new    ;" width="64" height="94" id="_Image37" xlink:href="92C6981D29350631.png"  transform="matrix(0.6204 0 0 0.6299 464.6741 243.0214)">
						</image>
					</g>
				</g>
			</g>
			<path class="st32" d="M421,365.7l4.6-86.3l-10.2-36.5h-20.9L421,365.7z"/>
			<path class="st33" d="M415.5,242.9l10.2,36.5l10.2-36.5H415.5z"/>
			<g>
				<g>
					<defs>
						<polygon id="SVGID_38_" points="387.2,310.6 421,365.7 394.6,242.9 341,242.9 367.6,273 						"/>
					</defs>
					<clipPath id="SVGID_39_">
						<use xlink:href="#SVGID_38_"  style="overflow:visible;"/>
					</clipPath>
					<g class="st34">
						
							<image style="overflow:visible;enable-background:new    ;" width="125" height="189" id="_Image39" xlink:href="92C6981D29350633.png"  transform="matrix(0.649 0 0 0.649 340.6547 243.3012)">
						</image>
					</g>
				</g>
			</g>
			<path class="st35" d="M464.7,238.1v4.8h20.1L464.7,238.1z"/>
			<path class="st36" d="M484.9,242.9l19.5,6.3l-5.2-6.3H484.9z"/>
			<path class="st26" d="M474.6,235.3l12.2-0.9l12.4,8.5h-14.3l-20.1-4.8L474.6,235.3z"/>
			
				<linearGradient id="SVGID_40_" gradientUnits="userSpaceOnUse" x1="2.0271" y1="-241.8101" x2="3.0271" y2="-241.8101" gradientTransform="matrix(-5.16 -61.18 -61.18 5.16 -14425.8984 1635.2438)">
				<stop  offset="0" style="stop-color:#49BBCD"/>
				<stop  offset="0.5" style="stop-color:#C3DFE4"/>
				<stop  offset="1" style="stop-color:#EBEBEB"/>
			</linearGradient>
			<path class="st37" d="M341,242.9L314.9,217l78.1,19.5l1.6,6.3H341V242.9z"/>
			<path class="st38" d="M369.7,220.7l-1.4-4h-0.1l1,4.4l4.4,1.1l2,0.7l1.6,0.2l2.3,0.6l1.8,0.5l2.1,2.1l3.4,1.9l4.9,0.8l-5.4-1.5
				l-3.6-2l-2-2l-5-0.7l-2.2-1.1L369.7,220.7z"/>
		</g>
	</g>
</g>
</svg>
